<?xml version="1.0" encoding="UTF-8"?><svg id="Layer_1" xmlns="http://www.w3.org/2000/svg" viewBox="0 0 2591.4 733.4"><defs><style>.cls-1{fill:#f2f2f2;}</style></defs><path class="cls-1" d="m1189.25,505.42h-88.78l-111.93-111.93h-178.19v111.93h-65.32v-176.93h362.73v-35.51h-362.41v-65h429.31v165.51h-97.34l111.93,111.93Z"/><path class="cls-1" d="m1452.73,227.98l174.71,277.44h-72.61l-138.56-219.73-138.56,219.73h-72.61l175.02-277.44h72.61Z"/><path class="cls-1" d="m1903.6,366.86l-86.24,70.71-82.76,67.85h-91.32l168.68-138.56h.32l-.32-.32-168.68-138.56h91.32l123.34,101.15,123.34-101.15h91.32l-136.02,111.61-32.66,26.95-.32.32Z"/><path class="cls-1" d="m2088.45,505.42V227.98h429.31v277.44h-65v-214.66h-299.31v214.66h-65Z"/><polygon class="cls-1" points="417.77 425.59 342.95 555.88 268.12 425.59 342.95 177.53 417.77 425.59"/><polygon class="cls-1" points="526.36 425.62 480.26 499.73 434.16 425.62 480.26 284.51 526.36 425.62"/><polygon class="cls-1" points="252.63 425.62 206.53 499.73 160.43 425.62 206.53 284.51 252.63 425.62"/><path class="cls-1" d="m342.95,124.72c133.64,0,241.98,108.34,241.98,241.98s-108.34,241.98-241.98,241.98-241.98-108.34-241.98-241.98,108.34-241.98,241.98-241.98m0-39.65c-38,0-74.89,7.45-109.64,22.15-33.54,14.19-63.66,34.49-89.51,60.34-25.85,25.85-46.15,55.97-60.34,89.51-14.7,34.75-22.15,71.63-22.15,109.64s7.45,74.89,22.15,109.64c14.19,33.54,34.49,63.66,60.34,89.51,25.85,25.85,55.97,46.15,89.51,60.34,34.75,14.7,71.63,22.15,109.64,22.15s74.89-7.45,109.64-22.15c33.54-14.19,63.66-34.49,89.51-60.34,25.85-25.85,46.15-55.97,60.34-89.51,14.7-34.75,22.15-71.63,22.15-109.64s-7.45-74.89-22.15-109.64c-14.19-33.54-34.49-63.66-60.34-89.51-25.85-25.85-55.97-46.15-89.51-60.34-34.75-14.7-71.63-22.15-109.64-22.15h0Z"/></svg>